<?xml version="1.0" encoding="UTF-8" standalone="no"?>
<svg
   xmlns:dc="http://purl.org/dc/elements/1.1/"
   xmlns:cc="http://creativecommons.org/ns#"
   xmlns:rdf="http://www.w3.org/1999/02/22-rdf-syntax-ns#"
   xmlns:svg="http://www.w3.org/2000/svg"
   xmlns="http://www.w3.org/2000/svg"
   viewBox="0 0 793.70667 793.70667"
   height="793.70667"
   width="793.70667"
   xml:space="preserve"
   id="svg2"
   version="1.1"><metadata
     id="metadata8"><rdf:RDF><cc:Work
         rdf:about=""><dc:format>image/svg+xml</dc:format><dc:type
           rdf:resource="http://purl.org/dc/dcmitype/StillImage" /></cc:Work></rdf:RDF></metadata><defs
     id="defs6" /><g
     transform="matrix(1.3333333,0,0,-1.3333333,0,793.70667)"
     id="g10"><g
       transform="scale(0.1)"
       id="g12"><path
         id="path14"
         style="fill:#ffffff;fill-opacity:1;fill-rule:nonzero;stroke:none"
         d="M 0,0 H 5952.8 V 5952.8 H 0 Z" /><path
         id="path16"
         style="fill:#1e1c1b;fill-opacity:1;fill-rule:nonzero;stroke:none"
         d="M 0,226.992 V 0 H 5952.8 V 226.992 H 0" /><path
         id="path18"
         style="fill:#ffffff;fill-opacity:1;fill-rule:nonzero;stroke:none"
         d="m 1864.71,82.7305 h 5.31 c 7.82,0 15.21,0.7109 22.19,2.1406 6.95,1.4297 13.01,3.8203 18.22,7.2109 5.18,3.3789 9.34,7.8086 12.44,13.27 3.12,5.449 4.65,12.211 4.65,20.238 0,7.98 -1.5,14.769 -4.56,20.41 -3.07,5.652 -7.32,10.051 -12.78,13.211 -5.46,3.219 -11.49,5.57 -18.09,7.059 -6.56,1.48 -13.93,2.21 -22.07,2.21 h -5.31 z m -15.1,98.4105 h 25.06 c 19.71,0 35.95,-4.762 48.69,-14.289 12.86,-9.422 19.28,-22.993 19.28,-40.661 0,-18.171 -6.37,-32.0816 -19.13,-41.6793 -12.73,-9.6406 -29.18,-14.4492 -49.31,-14.4492 h -24.59 V 181.141" /><path
         id="path20"
         style="fill:#ffffff;fill-opacity:1;fill-rule:nonzero;stroke:none"
         d="m 2007.72,112.359 c -0.86,5.289 -3.07,9.493 -6.67,12.582 -3.61,3.079 -8.29,4.641 -14.06,4.641 -2.79,0 -5.41,-0.41 -7.79,-1.25 -2.41,-0.84 -4.56,-2.051 -6.45,-3.621 -1.86,-1.563 -3.41,-3.398 -4.65,-5.531 -1.22,-2.11 -2.05,-4.391 -2.49,-6.821 z m -42.91,-10.027 c 0.22,-6.2031 2.36,-11.5312 6.44,-16.0625 4.16,-4.5195 9.59,-6.789 16.21,-6.789 5.26,0 9.57,1.1015 12.95,3.3203 3.36,2.2109 6.56,5.5586 9.55,10.0898 l 12.23,-6.332 c -3.56,-5.8867 -8.4,-10.5078 -14.57,-13.8594 -6.15,-3.3281 -12.91,-4.9883 -20.31,-4.9883 -11.25,0 -20.25,3.4297 -27,10.3008 -6.63,6.9688 -9.94,15.6289 -9.94,25.9493 0,10.871 3.15,19.82 9.46,26.789 6.22,6.871 15.27,10.32 27.16,10.32 11.57,0 20.3,-3.449 26.19,-10.32 5.99,-6.859 9.01,-15.66 9.01,-26.359 v -2.059 h -57.38" /><path
         id="path22"
         style="fill:#ffffff;fill-opacity:1;fill-rule:nonzero;stroke:none"
         d="m 2064.76,123.25 c -2.15,4 -5.37,6.039 -9.64,6.039 -2.03,0 -3.86,-0.668 -5.47,-1.988 -1.6,-1.34 -2.4,-2.93 -2.4,-4.789 0,-1.77 0.6,-3.262 1.84,-4.512 1.22,-1.23 2.9,-2.379 5.05,-3.461 1.4,-0.57 2.48,-1.051 3.23,-1.391 0.75,-0.339 1.97,-0.867 3.69,-1.539 l 2.25,-0.879 1.45,-0.609 c 5.34,-2.25 9.58,-4.859 12.7,-7.789 3.11,-2.9609 4.65,-6.8828 4.65,-11.8125 0,-6.4687 -2.58,-11.9179 -7.72,-16.3203 -5.05,-4.3281 -11.08,-6.4883 -18.16,-6.4883 -2.88,0 -5.68,0.3594 -8.36,1.1016 -2.66,0.7266 -5.15,1.7578 -7.47,3.0977 -2.29,1.3398 -4.33,2.9492 -6.08,4.8515 -1.77,1.9297 -3.15,4.0586 -4.1,6.4102 l 12.36,5.1679 c 3.53,-5.8984 8.08,-8.8593 13.65,-8.8593 2.27,0 4.35,0.582 6.27,1.7109 1.93,1.1172 3.36,2.5508 4.26,4.2578 0.9,1.711 1.09,3.5899 0.56,5.6016 -0.52,2.0078 -2.2,3.9101 -4.99,5.6797 l -14.14,6.9105 c -2.44,1.191 -4.59,2.371 -6.4,3.558 -1.83,1.153 -3.33,2.43 -4.5,3.742 -1.18,1.329 -2.07,2.809 -2.67,4.438 -0.58,1.601 -0.87,3.492 -0.87,5.652 0,5.621 2.14,10.309 6.43,14.141 4.27,3.937 9.53,5.898 15.74,5.898 9.42,0 16.28,-4.007 20.56,-12.078 l -11.72,-5.742" /><path
         id="path24"
         style="fill:#ffffff;fill-opacity:1;fill-rule:nonzero;stroke:none"
         d="m 2113.91,70.0625 h -14.45 V 139.02 h 14.45 z m 2.73,100.4685 c 0,-2.461 -0.96,-4.562 -2.9,-6.32 -1.92,-1.781 -4.27,-2.641 -7.06,-2.641 -2.77,0 -5.14,0.86 -7.06,2.641 -1.92,1.758 -2.89,3.859 -2.89,6.32 0,2.551 0.97,4.739 2.89,6.559 1.92,1.82 4.29,2.719 7.06,2.719 2.79,0 5.14,-0.899 7.06,-2.719 1.94,-1.82 2.9,-4.008 2.9,-6.559" /><path
         id="path26"
         style="fill:#ffffff;fill-opacity:1;fill-rule:nonzero;stroke:none"
         d="m 2169.35,79.4805 c 7.6,0 13.54,2.4101 17.84,7.2422 4.39,4.8984 6.6,10.8476 6.6,17.8083 0,6.867 -2.21,12.719 -6.6,17.532 -4.3,4.816 -10.24,7.226 -17.84,7.226 -7.18,0 -12.95,-2.48 -17.36,-7.359 -4.27,-4.821 -6.42,-10.61 -6.42,-17.399 0,-6.9607 2.15,-12.8591 6.42,-17.6794 4.41,-4.9102 10.18,-7.3711 17.36,-7.3711 z m 38.09,-8.0899 c 0,-12.9804 -2.68,-23.039 -8.05,-30.2109 -5.35,-7.0703 -14.89,-10.6211 -28.61,-10.6211 -10.58,0 -19.28,2.8203 -26.01,8.4023 -6.64,5.6211 -10.06,13.2188 -10.28,22.8477 h 14.46 c 0,-6.1992 2.05,-10.9766 6.17,-14.3594 4.14,-3.4101 9.58,-5.0976 16.33,-5.0976 8.24,0 13.87,2.2304 16.94,6.6484 3.08,4.4102 4.58,10.6523 4.58,18.7109 v 13.1094 h -0.32 c -3,-4.1289 -6.71,-7.3515 -11.18,-9.6484 -4.44,-2.3203 -9.22,-3.461 -14.36,-3.461 -11.15,0 -19.92,3.5782 -26.36,10.7383 -6.43,7.1914 -9.65,16.0117 -9.65,26.5198 0,9.922 3.28,18.351 9.82,25.363 6.52,7.16 15.04,10.738 25.54,10.738 11.04,0 19.75,-4.621 26.19,-13.851 h 0.32 v 11.801 h 14.47 V 71.3906" /><path
         id="path28"
         style="fill:#ffffff;fill-opacity:1;fill-rule:nonzero;stroke:none"
         d="m 2240.67,129.719 h 0.35 c 2.13,3.633 5.25,6.441 9.3,8.41 4.07,1.953 8.53,2.941 13.35,2.941 4.92,0 9.1,-0.679 12.52,-2.05 3.44,-1.399 6.19,-3.348 8.28,-5.911 2.09,-2.55 3.59,-5.648 4.5,-9.339 0.89,-3.7 1.36,-7.891 1.36,-12.61 V 70.0625 h -14.45 v 39.4685 c 0,6.801 -1.07,11.739 -3.21,14.867 -2.14,3.262 -6.6,4.891 -13.33,4.891 -2.48,0 -4.57,-0.23 -6.28,-0.668 -1.71,-0.441 -3.21,-1.082 -4.5,-1.91 -1.29,-0.852 -2.34,-1.789 -3.22,-2.879 -0.84,-1.07 -1.66,-2.273 -2.4,-3.531 -0.33,-0.692 -0.63,-1.559 -0.88,-2.653 -0.27,-1.078 -0.52,-2.187 -0.73,-3.308 -0.22,-1.141 -0.38,-2.27 -0.49,-3.399 -0.1,-1.132 -0.17,-2.043 -0.17,-2.722 V 101.73 70.0625 h -14.44 V 139.02 h 14.44 v -9.301" /><path
         id="path30"
         style="fill:#ffffff;fill-opacity:1;fill-rule:nonzero;stroke:none"
         d="m 2393.01,79.4805 c 7.62,0 13.55,2.4101 17.83,7.2422 4.41,4.8984 6.6,10.8476 6.6,17.8083 0,6.867 -2.19,12.719 -6.6,17.532 -4.28,4.816 -10.21,7.226 -17.83,7.226 -7.17,0 -12.95,-2.48 -17.37,-7.359 -4.27,-4.821 -6.42,-10.61 -6.42,-17.399 0,-6.9607 2.15,-12.8591 6.42,-17.6794 4.42,-4.9102 10.2,-7.3711 17.37,-7.3711 z M 2355.57,197.93 h 14.46 v -70.399 h 0.34 c 6.63,9.02 15.36,13.539 26.16,13.539 10.52,0 19.04,-3.578 25.56,-10.738 6.54,-7.012 9.79,-15.441 9.79,-25.363 0,-10.5081 -3.2,-19.3284 -9.62,-26.5198 -6.43,-7.1601 -15.21,-10.7383 -26.36,-10.7383 -5.14,0 -9.92,1.1407 -14.38,3.461 -4.45,2.2969 -8.16,5.5195 -11.15,9.6484 h -0.34 V 70.0625 h -14.46 V 197.93" /><path
         id="path32"
         style="fill:#ffffff;fill-opacity:1;fill-rule:nonzero;stroke:none"
         d="m 2433.98,139.02 h 16.88 l 25.38,-43.77 23.6,43.77 h 16.25 l -60.9,-108.4614 h -16.39 l 29.56,51.2812 -34.38,57.1802" /><path
         id="path34"
         style="fill:#ffffff;fill-opacity:1;fill-rule:nonzero;stroke:none"
         d="m 2616.84,155.5 -21.54,-44.918 h 43.06 z m -27.81,-57.5898 -13.8,-27.8477 h -16.25 l 57.86,115.8085 57.83,-115.8085 h -16.21 l -13.83,27.8477 h -55.6" /><path
         id="path36"
         style="fill:#ffffff;fill-opacity:1;fill-rule:nonzero;stroke:none"
         d="m 2698.28,70.0625 h -14.45 V 197.93 h 14.45 V 70.0625" /><path
         id="path38"
         style="fill:#ffffff;fill-opacity:1;fill-rule:nonzero;stroke:none"
         d="m 2733.96,70.0625 h -14.47 V 197.93 h 14.47 V 70.0625" /><path
         id="path40"
         style="fill:#ffffff;fill-opacity:1;fill-rule:nonzero;stroke:none"
         d="M 2788.9,122.809 V 111.75 h -35.17 v 11.059 h 35.17" /><path
         id="path42"
         style="fill:#ffffff;fill-opacity:1;fill-rule:nonzero;stroke:none"
         d="m 2845.14,184.531 c -4.49,1.879 -7.71,2.778 -9.63,2.778 -3.14,0 -5.35,-0.879 -6.76,-2.7 -1.39,-1.82 -2.36,-4.05 -2.89,-6.699 -0.32,-1.969 -0.51,-3.519 -0.57,-4.648 -0.04,-1.121 -0.07,-2.68 -0.07,-4.653 V 139.02 h 19.92 v -12.368 h -19.92 V 70.0625 h -14.46 v 56.5895 h -6.58 v 12.368 h 6.58 v 33.582 c 0,18.07 8.08,27.109 24.26,27.109 3.53,0 6.89,-0.609 10.12,-1.781 v -13.399" /><path
         id="path44"
         style="fill:#ffffff;fill-opacity:1;fill-rule:nonzero;stroke:none"
         d="m 2867.48,127.82 h 0.47 c 1.84,4.121 4.51,7.352 8.04,9.719 3.53,2.34 7.7,3.531 12.53,3.531 3.96,0 7.95,-1.101 11.89,-3.39 l -6.58,-12.09 c -2.36,1.871 -5.31,2.812 -8.84,2.812 -7.39,0 -12.31,-2.754 -14.77,-8.254 -1.07,-2.546 -1.8,-5.078 -2.18,-7.578 -0.39,-2.519 -0.56,-5.371 -0.56,-8.609 V 70.0625 h -14.46 V 139.02 h 14.46 v -11.2" /><path
         id="path46"
         style="fill:#ffffff;fill-opacity:1;fill-rule:nonzero;stroke:none"
         d="m 2960.04,112.359 c -0.88,5.289 -3.11,9.493 -6.67,12.582 -3.6,3.079 -8.27,4.641 -14.07,4.641 -2.8,0 -5.37,-0.41 -7.81,-1.25 -2.39,-0.84 -4.53,-2.051 -6.41,-3.621 -1.88,-1.563 -3.43,-3.398 -4.66,-5.531 -1.23,-2.11 -2.07,-4.391 -2.49,-6.821 z m -42.92,-10.027 c 0.22,-6.2031 2.37,-11.5312 6.43,-16.0625 4.18,-4.5195 9.59,-6.789 16.24,-6.789 5.24,0 9.55,1.1015 12.93,3.3203 3.36,2.2109 6.54,5.5586 9.55,10.0898 l 12.22,-6.332 c -3.55,-5.8867 -8.4,-10.5078 -14.55,-13.8594 -6.16,-3.3281 -12.93,-4.9883 -20.33,-4.9883 -11.23,0 -20.23,3.4297 -26.98,10.3008 -6.63,6.9688 -9.96,15.6289 -9.96,25.9493 0,10.871 3.15,19.82 9.48,26.789 6.2,6.871 15.25,10.32 27.15,10.32 11.56,0 20.29,-3.449 26.19,-10.32 5.99,-6.859 9,-15.66 9,-26.359 v -2.059 h -57.37" /><path
         id="path48"
         style="fill:#ffffff;fill-opacity:1;fill-rule:nonzero;stroke:none"
         d="m 3038.43,112.359 c -0.89,5.289 -3.08,9.493 -6.67,12.582 -3.61,3.079 -8.29,4.641 -14.06,4.641 -2.81,0 -5.38,-0.41 -7.84,-1.25 -2.37,-0.84 -4.52,-2.051 -6.38,-3.621 -1.89,-1.563 -3.42,-3.398 -4.65,-5.531 -1.25,-2.11 -2.09,-4.391 -2.5,-6.821 z m -42.92,-10.027 c 0.22,-6.2031 2.38,-11.5312 6.44,-16.0625 4.17,-4.5195 9.59,-6.789 16.2,-6.789 5.25,0 9.59,1.1015 12.96,3.3203 3.36,2.2109 6.55,5.5586 9.55,10.0898 l 12.22,-6.332 c -3.55,-5.8867 -8.39,-10.5078 -14.52,-13.8594 -6.19,-3.3281 -12.96,-4.9883 -20.34,-4.9883 -11.26,0 -20.26,3.4297 -26.98,10.3008 -6.65,6.9688 -9.97,15.6289 -9.97,25.9493 0,10.871 3.16,19.82 9.49,26.789 6.18,6.871 15.26,10.32 27.14,10.32 11.57,0 20.28,-3.449 26.18,-10.32 5.99,-6.859 9,-15.66 9,-26.359 v -2.059 h -57.37" /><path
         id="path50"
         style="fill:#ffffff;fill-opacity:1;fill-rule:nonzero;stroke:none"
         d="M 3099.62,122.809 V 111.75 h -35.17 v 11.059 h 35.17" /><path
         id="path52"
         style="fill:#ffffff;fill-opacity:1;fill-rule:nonzero;stroke:none"
         d="m 3151.05,79.4805 c 7.6,0 13.57,2.4101 17.84,7.2422 4.39,4.8984 6.56,10.8476 6.56,17.8083 0,6.867 -2.17,12.719 -6.56,17.532 -4.27,4.816 -10.24,7.226 -17.84,7.226 -7.18,0 -12.95,-2.48 -17.35,-7.359 -4.29,-4.821 -6.4,-10.61 -6.4,-17.399 0,-6.9607 2.11,-12.8591 6.4,-17.6794 4.4,-4.9102 10.17,-7.3711 17.35,-7.3711 z m 23.62,1.3398 h -0.33 c -2.99,-4.1289 -6.71,-7.3515 -11.16,-9.6484 -4.44,-2.3203 -9.22,-3.461 -14.37,-3.461 -11.14,0 -19.93,3.5782 -26.36,10.7383 -6.43,7.1914 -9.64,16.0117 -9.64,26.5198 0,9.922 3.27,18.351 9.8,25.363 6.53,7.16 15.06,10.738 25.54,10.738 10.83,0 19.55,-4.519 26.19,-13.539 h 0.33 v 70.399 h 14.47 V 70.0625 h -14.47 v 10.7578" /><path
         id="path54"
         style="fill:#ffffff;fill-opacity:1;fill-rule:nonzero;stroke:none"
         d="m 3215.65,104.391 c 0,-6.3988 2.5,-12.0394 7.53,-16.9301 4.93,-4.7304 10.97,-7.0898 18.17,-7.0898 7.06,0 13.12,2.3594 18.14,7.0898 5.05,4.8907 7.54,10.5313 7.54,16.9301 0,6.48 -2.49,12.109 -7.54,16.929 -5.02,4.711 -11.08,7.082 -18.14,7.082 -7.2,0 -13.24,-2.371 -18.17,-7.082 -5.03,-4.82 -7.53,-10.449 -7.53,-16.929 z m -2.9,26.07 c 7.8,7.078 17.35,10.609 28.6,10.609 11.24,0 20.73,-3.531 28.44,-10.609 7.81,-7.07 11.71,-15.762 11.71,-26.07 0,-10.3324 -3.9,-19.0004 -11.71,-26.0785 -7.71,-7.0703 -17.2,-10.6016 -28.44,-10.6016 -11.25,0 -20.8,3.5313 -28.6,10.6016 -7.7,7.0781 -11.58,15.7461 -11.58,26.0785 0,10.308 3.88,19 11.58,26.07" /><path
         id="path56"
         style="fill:#ffffff;fill-opacity:1;fill-rule:nonzero;stroke:none"
         d="m 3320.39,95.1016 22.18,47.7304 22.03,-47.7304 21.83,43.9184 h 16.4 l -38.23,-71.3091 -22.03,46.1021 -22.18,-46.1021 -38.23,71.3091 h 16.37 l 21.86,-43.9184" /><path
         id="path58"
         style="fill:#ffffff;fill-opacity:1;fill-rule:nonzero;stroke:none"
         d="m 3424.51,129.719 h 0.34 c 2.11,3.633 5.24,6.441 9.32,8.41 4.07,1.953 8.52,2.941 13.33,2.941 4.94,0 9.09,-0.679 12.55,-2.05 3.42,-1.399 6.18,-3.348 8.23,-5.911 2.1,-2.55 3.62,-5.648 4.51,-9.339 0.93,-3.7 1.37,-7.891 1.37,-12.61 V 70.0625 h -14.47 v 39.4685 c 0,6.801 -1.07,11.739 -3.21,14.867 -2.1,3.262 -6.57,4.891 -13.31,4.891 -2.47,0 -4.59,-0.23 -6.29,-0.668 -1.71,-0.441 -3.21,-1.082 -4.49,-1.91 -1.3,-0.852 -2.35,-1.789 -3.23,-2.879 -0.83,-1.07 -1.65,-2.273 -2.39,-3.531 -0.32,-0.692 -0.62,-1.559 -0.89,-2.653 -0.27,-1.078 -0.51,-2.187 -0.71,-3.308 -0.21,-1.141 -0.39,-2.27 -0.48,-3.399 -0.14,-1.132 -0.18,-2.043 -0.18,-2.722 V 101.73 70.0625 h -14.45 V 139.02 h 14.45 v -9.301" /><path
         id="path60"
         style="fill:#ffffff;fill-opacity:1;fill-rule:nonzero;stroke:none"
         d="m 3509.18,70.0625 h -14.44 V 197.93 h 14.44 V 70.0625" /><path
         id="path62"
         style="fill:#ffffff;fill-opacity:1;fill-rule:nonzero;stroke:none"
         d="m 3537.48,104.391 c 0,-6.3988 2.49,-12.0394 7.54,-16.9301 4.92,-4.7304 10.97,-7.0898 18.16,-7.0898 7.05,0 13.13,2.3594 18.15,7.0898 5.03,4.8907 7.57,10.5313 7.57,16.9301 0,6.48 -2.54,12.109 -7.57,16.929 -5.02,4.711 -11.1,7.082 -18.15,7.082 -7.19,0 -13.24,-2.371 -18.16,-7.082 -5.05,-4.82 -7.54,-10.449 -7.54,-16.929 z m -2.91,26.07 c 7.81,7.078 17.34,10.609 28.61,10.609 11.24,0 20.73,-3.531 28.44,-10.609 7.8,-7.07 11.72,-15.762 11.72,-26.07 0,-10.3324 -3.92,-19.0004 -11.72,-26.0785 -7.71,-7.0703 -17.2,-10.6016 -28.44,-10.6016 -11.27,0 -20.8,3.5313 -28.61,10.6016 -7.7,7.0781 -11.56,15.7461 -11.56,26.0785 0,10.308 3.86,19 11.56,26.07" /><path
         id="path64"
         style="fill:#ffffff;fill-opacity:1;fill-rule:nonzero;stroke:none"
         d="m 3648.98,79.4805 c 7.61,0 13.53,2.4101 17.82,7.2422 4.4,4.8984 6.61,10.8476 6.61,17.8083 0,6.867 -2.21,12.719 -6.61,17.532 -4.29,4.816 -10.21,7.226 -17.82,7.226 -7.18,0 -12.98,-2.48 -17.34,-7.359 -4.32,-4.821 -6.44,-10.61 -6.44,-17.399 0,-6.9607 2.12,-12.8591 6.44,-17.6794 4.36,-4.9102 10.16,-7.3711 17.34,-7.3711 z m 38.07,-9.418 h -14.46 v 10.7578 h -0.3 c -6.43,-8.7383 -14.97,-13.1094 -25.56,-13.1094 -11.04,0 -19.81,3.5782 -26.37,10.7383 -6.42,7.1914 -9.62,16.0117 -9.62,26.5198 0,9.922 3.24,18.351 9.8,25.363 6.54,7.16 15.09,10.738 25.71,10.738 10.72,0 19.39,-4.519 26.04,-13.539 h 0.3 v 11.489 h 14.46 V 70.0625" /><path
         id="path66"
         style="fill:#ffffff;fill-opacity:1;fill-rule:nonzero;stroke:none"
         d="m 3738.32,79.4805 c 7.6,0 13.52,2.4101 17.8,7.2422 4.42,4.8984 6.61,10.8476 6.61,17.8083 0,6.867 -2.19,12.719 -6.61,17.532 -4.28,4.816 -10.2,7.226 -17.8,7.226 -7.2,0 -12.98,-2.48 -17.35,-7.359 -4.29,-4.821 -6.43,-10.61 -6.43,-17.399 0,-6.9607 2.14,-12.8591 6.43,-17.6794 4.37,-4.9102 10.15,-7.3711 17.35,-7.3711 z m 23.59,1.3398 h -0.3 c -3.01,-4.1289 -6.72,-7.3515 -11.16,-9.6484 -4.44,-2.3203 -9.25,-3.461 -14.38,-3.461 -11.14,0 -19.94,3.5782 -26.34,10.7383 -6.43,7.1914 -9.66,16.0117 -9.66,26.5198 0,9.922 3.25,18.351 9.82,25.363 6.52,7.16 15.04,10.738 25.52,10.738 10.84,0 19.55,-4.519 26.2,-13.539 h 0.3 v 70.399 h 14.49 V 70.0625 h -14.49 v 10.7578" /><path
         id="path68"
         style="fill:#ffffff;fill-opacity:1;fill-rule:nonzero;stroke:none"
         d="m 3817.85,76.2617 c 0,-2.3828 -0.92,-4.3906 -2.73,-6.0625 -1.83,-1.6679 -4.04,-2.4883 -6.61,-2.4883 -2.55,0 -4.76,0.8204 -6.57,2.4883 -1.81,1.6719 -2.73,3.6797 -2.73,6.0625 0,2.25 0.92,4.2305 2.73,5.9492 1.81,1.711 4.02,2.5704 6.57,2.5704 2.57,0 4.78,-0.8594 6.61,-2.5704 1.81,-1.7187 2.73,-3.6992 2.73,-5.9492" /><path
         id="path70"
         style="fill:#ffffff;fill-opacity:1;fill-rule:nonzero;stroke:none"
         d="m 3896.91,119.422 c -5.98,6.168 -13.2,9.277 -21.55,9.277 -6.96,0 -12.92,-2.418 -17.81,-7.23 -4.83,-4.899 -7.26,-10.567 -7.26,-16.938 0,-7.1716 2.43,-13.0193 7.26,-17.531 5.03,-4.6211 11.3,-6.9297 18.78,-6.9297 7.71,0 14.6,3.0391 20.58,9.1406 V 72.2695 c -6.24,-3.039 -13.12,-4.5586 -20.75,-4.5586 -11.14,0 -20.66,3.461 -28.59,10.4493 -7.84,6.8789 -11.72,15.4804 -11.72,25.8008 0,10.578 3.88,19.43 11.72,26.5 7.81,7.078 17.64,10.609 29.41,10.609 7.73,0 14.34,-1.531 19.93,-4.57 v -17.078" /><path
         id="path72"
         style="fill:#ffffff;fill-opacity:1;fill-rule:nonzero;stroke:none"
         d="m 3920.19,104.391 c 0,-6.3988 2.53,-12.0394 7.54,-16.9301 4.95,-4.7304 11,-7.0898 18.18,-7.0898 7.05,0 13.1,2.3594 18.16,7.0898 5.01,4.8907 7.54,10.5313 7.54,16.9301 0,6.48 -2.53,12.109 -7.54,16.929 -5.06,4.711 -11.11,7.082 -18.16,7.082 -7.18,0 -13.23,-2.371 -18.18,-7.082 -5.01,-4.82 -7.54,-10.449 -7.54,-16.929 z m -2.87,26.07 c 7.81,7.078 17.34,10.609 28.59,10.609 11.24,0 20.71,-3.531 28.42,-10.609 7.86,-7.07 11.75,-15.762 11.75,-26.07 0,-10.3324 -3.89,-19.0004 -11.75,-26.0785 -7.71,-7.0703 -17.18,-10.6016 -28.42,-10.6016 -11.25,0 -20.78,3.5313 -28.59,10.6016 -7.75,7.0781 -11.58,15.7461 -11.58,26.0785 0,10.308 3.83,19 11.58,26.07" /><path
         id="path74"
         style="fill:#ffffff;fill-opacity:1;fill-rule:nonzero;stroke:none"
         d="m 4013.2,130.332 h 0.33 c 2.15,3.129 5.03,5.699 8.61,7.727 3.59,2.011 7.38,3.011 11.32,3.011 9.32,0 16.57,-4.09 21.7,-12.238 2.36,3.738 5.59,6.707 9.72,8.918 4.12,2.219 8.6,3.32 13.42,3.32 16.61,0 24.9,-9.929 24.9,-29.75 V 70.0625 h -14.46 v 39.0395 c 0,1.769 -0.07,3.5 -0.23,5.238 -0.16,1.699 -0.47,3.39 -0.89,5 -0.41,1.609 -1.07,3.121 -1.94,4.492 -0.84,1.367 -2.03,2.609 -3.53,3.699 -1.92,1.168 -4.4,1.758 -7.38,1.758 -3,0 -5.58,-0.59 -7.72,-1.758 -2.03,-1.09 -3.62,-2.461 -4.74,-4.062 -1.12,-1.617 -1.99,-3.668 -2.64,-6.117 -0.65,-2.461 -1.03,-4.672 -1.23,-6.622 -0.15,-1.96 -0.22,-4.238 -0.22,-6.769 V 70.0625 h -14.46 V 106.59 c 0,2.359 -0.09,4.312 -0.17,5.89 -0.1,1.579 -0.43,3.54 -0.94,5.911 -0.55,2.539 -1.24,4.418 -2.12,5.589 -0.85,1.379 -2.17,2.59 -4,3.68 -1.81,1.09 -4.01,1.629 -6.6,1.629 -7.38,0 -12.17,-2.969 -14.28,-8.828 -0.97,-2.789 -1.63,-5.371 -1.92,-7.832 -0.34,-2.457 -0.53,-5.359 -0.53,-8.668 V 70.0625 h -14.44 V 139.02 h 14.44 v -8.688" /><path
         id="path76"
         style="fill:#ffffff;fill-opacity:1;fill-rule:nonzero;stroke:none"
         d="m 1717.24,110.551 h -204.68 v 9.168 h 204.68 v -9.168" /><path
         id="path78"
         style="fill:#ffffff;fill-opacity:1;fill-rule:nonzero;stroke:none"
         d="M 4440.24,110.551 H 4235.6 v 9.168 h 204.64 v -9.168" /><path
         id="path80"
         style="fill:#eeefed;fill-opacity:1;fill-rule:nonzero;stroke:none"
         d="m 2310.32,2071.75 c 924.13,0 1673.29,775.88 1673.29,1732.98 0,232.57 -44.29,454.41 -124.56,657.03 -36.49,92.14 2.49,196.21 90.03,242.69 187.32,99.45 315.5,301.43 315.5,534.43 0,331.48 -259.46,600.19 -579.53,600.19 -224.59,0 -419.3,-132.34 -515.48,-325.82 -45.24,-91.02 -151.68,-134.19 -245.78,-95.76 -189.95,77.58 -396.9,120.22 -613.47,120.22 -924.13,0 -1673.289,-775.88 -1673.289,-1732.98 0,-957.1 749.159,-1732.98 1673.289,-1732.98" /><path
         id="path82"
         style="fill:#5e534d;fill-opacity:1;fill-rule:nonzero;stroke:none"
         d="m 3678.14,1202.5 c 2.13,2.88 4.35,5.7 6.54,8.51 32.1,8.25 136.83,14.29 261.17,14.29 116.49,0 215.81,-5.28 254.31,-12.74 2.99,-3.83 5.96,-7.72 8.84,-11.67 -29.67,-8.52 -136.2,-14.81 -263.15,-14.81 -134.75,0 -246.53,7.11 -267.71,16.42" /><path
         id="path84"
         style="fill:#213d21;fill-opacity:1;fill-rule:nonzero;stroke:none"
         d="m 4506.67,2468.1 c 0,0 -102.49,33.48 -102.49,125.73 0,92.22 16.4,114.77 34.84,129.12 18.46,14.34 0,71.74 0,71.74 0,0 28.71,75.82 104.55,104.55 75.82,28.69 84.02,10.22 127.08,22.5 43.04,12.32 138.78,97.53 243.89,63.31 19.28,-6.26 0,-206.75 0,-206.75 l 2.16,24.51 28.59,157.91 c 0,0 53.31,18.44 147.61,-8.22 94.28,-26.63 112.71,-12.28 153.71,-4.09 40.98,8.19 49.19,-38.95 0,-59.44 -49.21,-20.49 -30.75,-14.35 -30.75,-14.35 0,0 53.29,-10.24 84.02,14.35 30.76,24.6 16.39,-55.34 -38.94,-84.02 -55.33,-28.72 -120.93,-53.3 -153.71,-92.27 -36.35,-43.11 -88.39,-82.81 -127.07,-90.54 -10.25,-2.03 -141.46,-1.67 -209.08,-50.89 -65.42,-47.56 -166.03,-64.9 -264.41,-103.15" /><path
         id="path86"
         style="fill:#213d21;fill-opacity:1;fill-rule:nonzero;stroke:none"
         d="m 4063.93,1101.63 c 11.04,88.87 30.17,376.72 92.24,621.05 32.8,129.16 198.13,545.93 257.57,632.01 34.85,50.46 59.78,91.21 77.42,110.5 4.25,7.94 138.05,142.26 268.3,222.57 117.57,72.51 233.26,128.63 318.71,156.81 0,0 -199.8,-93.65 -301.29,-159.86 -97.35,-63.57 -242.19,-187.24 -271.59,-222.07 -29.37,-34.83 -140.05,-170.1 -308.81,-691.41 -81.51,-251.79 -125.71,-858.128 -122.98,-871.82 2.73,-13.66 -29.43,-16.258 -29.43,-16.258 13.31,146.628 9.98,138.768 19.86,218.478" /><path
         id="path88"
         style="fill:#6e8427;fill-opacity:1;fill-rule:nonzero;stroke:none"
         d="m 4724.15,3857.21 c -5.14,4.25 -173.12,17.75 -299.65,-84.34 v -90.97 l -37.72,53.24 -190.89,-179.77 11.09,-84.36 -64.37,11.08 226.41,-204.17 -226.41,115.4 c 0,0 -108.74,-99.85 -139.82,-173.1 -31.07,-73.23 0,-146.5 39.94,-190.87 39.96,-44.41 146.67,-158.86 224.19,-121.36 52.11,25.25 35.28,-41.87 35.28,-41.87 0,0 30.45,-4.62 55.7,-3.25 164.25,8.88 143.26,162.29 182.02,205.96 55.5,62.61 96.19,106.65 165,119.96 68.8,13.3 96.02,169.31 103.57,308.86 8.13,150.95 -6.67,295.18 -84.34,359.56" /><path
         id="path90"
         style="fill:#213d21;fill-opacity:1;fill-rule:nonzero;stroke:none"
         d="m 4681.71,3712.78 c 0,0 -191.3,-321.64 -244.15,-450.57 -52.2,-127.28 -139.84,-306.29 -186.45,-692.48 -46.6,-386.17 -103.63,-903.33 -103.63,-903.33 0,0 -49.51,-811.49 -51.73,-872.259 l -33.29,-22.211 c 0,0 61.22,899.01 73.24,1014.31 13.81,132.57 100.07,781.29 106.55,836.75 15.53,133.18 75.51,384.56 129.82,532.69 61.05,166.46 258.58,512.72 309.64,557.1" /><path
         id="path92"
         style="fill:#213d21;fill-opacity:1;fill-rule:nonzero;stroke:none"
         d="m 3737.3,1819.17 c 9.11,-9.18 104.47,-423.49 108.39,-548.65 3.23,-103.4 -1.19,-349.071 -1.19,-349.071 l -28.08,5.711 c 0,0 -4.94,382.47 -9.79,484.76 -6.92,146.39 -87.96,419.34 -87.96,419.34 l 18.63,-12.09" /><path
         id="path94"
         style="fill:#213d21;fill-opacity:1;fill-rule:nonzero;stroke:none"
         d="m 3737.3,1819.17 c 0,0 84.03,17.74 100.66,54.6 16.59,36.9 -103.24,41.01 -134.1,78.36 -30.86,37.33 -62.13,45.46 -135.57,62.18 -73.42,16.68 -138.43,35.34 -182.39,25.97 -7.06,-1.55 22.26,0.62 44.91,-26.46 63.5,-75.99 157.97,-87.06 206.36,-126.94 45.7,-37.67 79.39,-52.54 100.13,-67.71" /><path
         id="path96"
         style="fill:#213d21;fill-opacity:1;fill-rule:nonzero;stroke:none"
         d="m 3756.48,3194.55 -23.41,65.58 c 0,0 20.82,-16.63 80.96,-31.66 22.55,-5.61 101.83,-19.43 140.57,-58.2 7.42,-7.43 -25.82,-78.39 -25.82,-78.39 0,0 55.27,62.42 65.47,58.57 130.58,-49.63 158.76,-188.63 172.37,-267.26 4.17,-24.24 -67.22,-70.95 -67.22,-70.95 6.67,-8.32 94.64,22.56 101.76,15.91 37.78,-35.42 -6.23,-191.18 -23.82,-222.87 -41.44,-74.8 -54.65,-83.19 -106.57,-115.56 0,0 -61.15,-25.43 -104.37,-6.93 -43.22,18.48 -265.37,-140.43 -413.79,234.93 -10.59,26.89 166.06,-20.7 166.06,-20.7 l -167.92,56.34 c -17.46,75.16 -21.69,187.22 -3.46,242.23 14.57,43.94 160.78,-9.93 160.78,-9.93 0,0 -140.64,66.97 -137.42,81.78 16.4,76.27 102.91,183.26 135.28,192.69 l 50.55,-65.58" /><path
         id="path98"
         style="fill:#213d21;fill-opacity:1;fill-rule:nonzero;stroke:none"
         d="m 3745.31,3209.04 c 0,0 117.77,-227.68 173.11,-379.35 70.59,-193.45 55.34,-201.88 75.83,-366.56 l -14.35,-991.94 -34.85,-588.038 h -26.63 l 36.88,1008.028 10.27,462.75 c 0,0 0.52,221.02 -16.41,296.38 -12.66,56.35 -15.57,109.2 -50.39,194.13 -47.09,114.78 -105.84,278.22 -153.46,364.6" /><path
         id="path100"
         style="fill:#213d21;fill-opacity:1;fill-rule:nonzero;stroke:none"
         d="m 3776.76,2188.36 c 0,0 95.93,-266.84 106.85,-497.37 10.95,-230.55 7.79,-896.338 0,-944.26 -7.76,-47.941 32.32,0 32.32,0 0,0 6.34,876.1 -19.84,1058.24 -27.47,191.15 -97.96,383.39 -97.96,383.39 h -21.37" /><path
         id="path102"
         style="fill:#6e8427;fill-opacity:1;fill-rule:nonzero;stroke:none"
         d="m 3322.12,2620.99 c 0,0 -40.81,-25.92 -36.91,-53.78 3.88,-27.83 87.91,-82.44 87.91,-82.44 0,0 174.38,-76.5 248.22,-82.32 73.83,-5.84 167.57,-204.06 167.09,-214.09 -0.48,-10.04 9.7,0 9.7,0 0,0 57.41,78.99 -47.48,195.58 -62.37,69.33 -158.81,129.89 -251.23,143.41 -68.97,10.06 -95.69,48.95 -93.76,72.28 1.95,23.31 -31.08,-31.1 -7.77,-54.4 23.3,-23.33 -81.59,48.55 -75.77,75.76" /><path
         id="path104"
         style="fill:#213d21;fill-opacity:1;fill-rule:nonzero;stroke:none"
         d="m 3292.46,2552.26 c 0,0 14.89,-58.82 241.45,-166.36 73.08,-34.7 228.42,-161.59 242.85,-197.54 3.98,-9.96 21.37,0 21.37,0 0,0 -89.04,196.49 -131.77,223.65 -42.77,27.21 -97.7,42.8 -182.98,47.19 -85.27,4.42 -174.51,70.86 -190.92,93.06" /><path
         id="path106"
         style="fill:#213d21;fill-opacity:1;fill-rule:nonzero;stroke:none"
         d="m 3850.85,3492.86 c 0,0 90.86,-252.68 101.21,-471.02 10.33,-218.36 -73.93,-1861.85 -81.29,-1907.23 -7.39,-45.4 30.57,0 30.57,0 0,0 87.32,1842.66 62.52,2015.15 -26.02,181.02 -92.77,363.1 -92.77,363.1 h -20.24" /><path
         id="path108"
         style="fill:#6e8427;fill-opacity:1;fill-rule:nonzero;stroke:none"
         d="m 3069.9,4147.55 c 0,0 -72.58,-46.06 -65.67,-95.6 6.92,-49.54 156.37,-146.71 156.37,-146.71 0,0 310.18,-136.04 441.49,-146.42 131.32,-10.39 298.07,-362.96 297.26,-380.8 -0.84,-17.84 17.24,0 17.24,0 0,0 102.13,140.52 -84.5,347.89 -110.93,123.29 -282.42,231.08 -446.8,255.09 -122.73,17.89 -170.24,87.06 -166.79,128.51 3.45,41.49 -55.3,-55.26 -13.84,-96.73 41.47,-41.46 -145.13,86.37 -134.76,134.77" /><path
         id="path110"
         style="fill:#213d21;fill-opacity:1;fill-rule:nonzero;stroke:none"
         d="m 3017.17,4025.32 c 0,0 26.45,-104.64 429.41,-295.95 130.04,-61.71 406.37,-287.41 431.99,-351.35 7.1,-17.7 38.02,0 38.02,0 0,0 -158.36,349.48 -234.4,397.86 -76.03,48.35 -173.73,76.07 -325.45,83.9 -151.69,7.84 -310.45,126.02 -339.57,165.54" /><path
         id="path112"
         style="fill:#213d21;fill-opacity:1;fill-rule:nonzero;stroke:none"
         d="m 4008.25,808.75 c -9.72,1.75 -19.25,2.441 -28.57,2.402 2.23,265.018 8.08,542.678 22.32,641.728 31.57,219.55 112.53,440.43 112.53,440.43 h 24.54 c 0,0 -110.2,-306.51 -122.75,-571.36 -5.3,-112.07 -7.72,-313.71 -8.07,-513.2" /><path
         id="path114"
         style="fill:#6e8427;fill-opacity:1;fill-rule:nonzero;stroke:none"
         d="m 4661.37,2390.3 c 0,0 46.87,-29.74 42.41,-61.74 -4.47,-31.98 -101.01,-94.74 -101.01,-94.74 0,0 -200.31,-87.88 -285.11,-94.57 -84.83,-6.71 -192.51,-234.41 -191.98,-245.94 0.53,-11.55 -11.15,0 -11.15,0 0,0 -65.95,90.78 54.57,224.7 71.62,79.59 182.4,149.23 288.56,164.73 79.27,11.56 109.98,56.25 107.73,83.01 -2.23,26.79 35.72,-35.69 8.94,-62.49 -26.79,-26.78 93.76,55.8 87.04,87.04" /><path
         id="path116"
         style="fill:#213d21;fill-opacity:1;fill-rule:nonzero;stroke:none"
         d="m 4695.43,2311.36 c 0,0 -17.09,-67.58 -277.36,-191.12 -83.99,-39.86 -262.44,-185.63 -279,-226.93 -4.57,-11.43 -24.54,0 -24.54,0 0,0 102.29,225.72 151.39,256.95 49.13,31.24 112.2,49.15 210.2,54.2 97.97,5.08 200.48,81.38 219.31,106.9" /><path
         id="path118"
         style="fill:#e5ceaf;fill-opacity:1;fill-rule:nonzero;stroke:none"
         d="m 3850.75,590.32 h 184.5" /><path
         id="path120"
         style="fill:#bc6f1d;fill-opacity:1;fill-rule:nonzero;stroke:none"
         d="m 3678.35,1202.5 0.25,-0.08 c -24.8,-287.639 175.62,-489.658 420.99,-583.951 -20.27,-11.688 -41.73,-21.16 -64.11,-28.149 h -184.51 c -144.31,45.09 -250.2,193.262 -250.2,369.192 0,92.218 29.14,176.828 77.58,242.988" /><path
         id="path122"
         style="fill:#cf7c1a;fill-opacity:1;fill-rule:nonzero;stroke:none"
         d="m 3678.14,1202.42 c 21.68,-9.26 133.15,-16.34 267.49,-16.34 126.92,0 233.45,6.29 263.15,14.81 47.79,-65.9 76.45,-149.88 76.45,-241.378 0,-148.653 -75.58,-277.461 -186.08,-341.043 -245.39,94.293 -445.79,296.312 -421.01,583.951" /><path
         id="path124"
         style="fill:#3259b1;fill-opacity:1;fill-rule:nonzero;stroke:none"
         d="m 1414.58,3242.62 239.43,550.83 c 62.52,143.83 179.78,256.81 325.83,313.93 l 205.01,80.18 -38.53,-437.25 -452.7,-717.77 -279.04,210.08" /><path
         id="path126"
         style="fill:#3259b1;fill-opacity:1;fill-rule:nonzero;stroke:none"
         d="m 3482.03,3242.62 -239.42,550.83 c -62.52,143.83 -179.79,256.81 -325.84,313.93 l -205.01,80.18 38.54,-437.25 452.7,-717.77 279.03,210.08" /><path
         id="path128"
         style="fill:#e6615e;fill-opacity:1;fill-rule:nonzero;stroke:none"
         d="m 1708.26,3103.63 c 0,-99.27 -80.47,-179.74 -179.73,-179.74 -99.27,0 -179.74,80.47 -179.74,179.74 0,99.26 80.47,179.73 179.74,179.73 99.26,0 179.73,-80.47 179.73,-179.73" /><path
         id="path130"
         style="fill:#e6615e;fill-opacity:1;fill-rule:nonzero;stroke:none"
         d="m 1561.06,3280.42 670.15,-176.79 v -179.74 h -702.68 l 32.53,356.53" /><path
         id="path132"
         style="fill:#e6615e;fill-opacity:1;fill-rule:nonzero;stroke:none"
         d="m 3178.64,3103.63 c 0,-99.27 80.47,-179.74 179.74,-179.74 99.26,0 179.73,80.47 179.73,179.74 0,99.26 -80.47,179.73 -179.73,179.73 -99.27,0 -179.74,-80.47 -179.74,-179.73" /><path
         id="path134"
         style="fill:#e6615e;fill-opacity:1;fill-rule:nonzero;stroke:none"
         d="m 3325.84,3280.42 -670.15,-176.79 v -179.74 h 702.69 l -32.54,356.53" /><path
         id="path136"
         style="fill:#100f0d;fill-opacity:1;fill-rule:nonzero;stroke:none"
         d="M 3130.85,2086.91 H 1790 v 143.72 h 1340.85 v -143.72" /><path
         id="path138"
         style="fill:#291413;fill-opacity:1;fill-rule:nonzero;stroke:none"
         d="M 2990.64,2220.75 H 1929.51 c -129.74,0 -235.89,106.14 -235.89,235.89 v 20.28 c 0,129.74 106.15,235.89 235.89,235.89 h 1061.13 c 129.73,0 235.88,-106.15 235.88,-235.89 v -20.28 c 0,-129.75 -106.15,-235.89 -235.88,-235.89" /><path
         id="path140"
         style="fill:#100f0d;fill-opacity:1;fill-rule:nonzero;stroke:none"
         d="m 2844.32,4808.28 c 0,-22.11 -45.44,-40 -49.13,-61.05 -3.79,-21.66 32.75,-53.95 25.4,-74.15 -7.49,-20.55 -56.31,-21.79 -67.12,-40.48 -10.92,-18.86 12.33,-61.76 -1.61,-78.35 -7.29,-8.68 -23.37,-8.62 -39.45,-8.55 -14.74,0.06 -29.49,0.11 -37.44,-6.57 -16.6,-13.94 -9.34,-62.22 -28.2,-73.14 -9.73,-5.63 -24.77,-0.09 -39.84,5.45 -13.86,5.09 -27.75,10.18 -37.59,6.6 -20.2,-7.36 -29.93,-55.21 -51.59,-59 -21.05,-3.69 -46.5,37.91 -68.61,37.91 -22.11,0 -47.56,-41.6 -68.61,-37.91 -21.66,3.79 -31.38,51.64 -51.58,59 -9.85,3.58 -23.74,-1.51 -37.59,-6.6 -15.08,-5.54 -30.11,-11.08 -39.85,-5.44 -18.87,10.91 -11.61,59.19 -28.19,73.13 -7.96,6.68 -22.71,6.63 -37.46,6.57 -16.08,-0.06 -32.16,-0.13 -39.45,8.55 -13.93,16.59 9.32,59.49 -1.6,78.36 -10.81,18.69 -59.63,19.92 -67.11,40.47 -7.35,20.2 29.19,52.5 25.39,74.15 -3.69,21.06 -49.13,38.94 -49.13,61.05 0,22.11 45.44,39.99 49.13,61.05 3.8,21.65 -32.74,53.95 -25.39,74.14 7.48,20.56 56.3,21.8 67.11,40.48 10.92,18.87 -12.33,61.77 1.61,78.35 7.29,8.69 23.37,8.63 39.45,8.56 14.75,-0.06 29.49,-0.11 37.45,6.57 16.59,13.93 9.33,62.22 28.19,73.13 9.74,5.64 24.77,0.1 39.85,-5.44 13.85,-5.09 27.74,-10.19 37.59,-6.6 20.2,7.35 29.92,55.21 51.58,59 21.05,3.69 46.5,-37.91 68.61,-37.91 22.11,0 47.56,41.6 68.62,37.91 21.65,-3.79 31.38,-51.65 51.58,-59 9.84,-3.59 23.73,1.51 37.59,6.6 15.07,5.54 30.11,11.08 39.85,5.44 18.86,-10.92 11.6,-59.2 28.19,-73.13 7.96,-6.69 22.7,-6.63 37.45,-6.57 16.08,0.06 32.16,0.12 39.45,-8.56 13.94,-16.59 -9.31,-59.48 1.6,-78.35 10.81,-18.69 59.63,-19.92 67.12,-40.48 7.35,-20.2 -29.19,-52.49 -25.4,-74.14 3.69,-21.06 49.13,-38.94 49.13,-61.05" /><path
         id="path142"
         style="fill:#e6615e;fill-opacity:1;fill-rule:nonzero;stroke:none"
         d="m 2933.41,4038.4 -202.88,136.37 c -48.91,32.87 -78.85,81.8 -82.27,134.48 l -7.11,109.25 -192.01,-135.91 -192.01,135.91 -7.1,-109.25 c -3.43,-52.68 -33.36,-101.61 -82.28,-134.48 L 1964.88,4038.4 c -89.13,-59.9 -130.93,-156.89 -108.23,-251.08 l 31.09,-129.04 h 531.4 60 531.4 l 31.09,129.04 c 22.71,94.19 -19.1,191.18 -108.22,251.08" /><path
         id="path144"
         style="fill:#e6615e;fill-opacity:1;fill-rule:nonzero;stroke:none"
         d="M 2263.54,4644.02 2253,4226.45 h 394.75 l -9.22,417.57 h -374.99" /><path
         id="path146"
         style="fill:#6b3223;fill-opacity:1;fill-rule:nonzero;stroke:none"
         d="m 2450.38,4250.89 -2.01,1.09 c -0.72,1.11 -0.4,2.6 0.72,3.31 72.18,46.34 53.85,109.46 53.66,110.1 -0.39,1.26 0.33,2.59 1.59,2.99 1.28,0.38 2.6,-0.34 2.99,-1.59 0.2,-0.67 19.54,-67.25 -55.66,-115.53 l -1.29,-0.37" /><path
         id="path148"
         style="fill:#100f0d;fill-opacity:1;fill-rule:nonzero;stroke:none"
         d="m 2641.23,4521.9 -2.7,122.12 h -374.99 l -3.05,-120.94 c -0.29,1.01 -0.58,2.03 -0.87,3.05 l 3.92,155.31 h 374.99 l 3.46,-156.8 c -0.25,-0.92 -0.51,-1.83 -0.76,-2.74" /><path
         id="path150"
         style="fill:#953b35;fill-opacity:1;fill-rule:nonzero;stroke:none"
         d="m 2499.46,4329.78 h -96.28 c -17.52,0 -34.54,6.4 -47.33,18.38 -40.22,37.69 -73.55,98.79 -95.36,174.92 l 3.05,120.94 h 374.99 l 2.7,-122.12 c -21.44,-76.1 -54.51,-136.62 -94.66,-173.93 -10.56,-9.82 -23.98,-15.85 -38.17,-17.63 3.42,20.98 -0.98,36.13 -1.07,36.45 -0.32,1.02 -1.26,1.69 -2.29,1.69 -0.23,0 -0.47,-0.03 -0.7,-0.1 -1.26,-0.4 -1.98,-1.73 -1.59,-2.99 0.09,-0.31 4.39,-15.08 0.77,-35.5 -1.35,-0.07 -2.7,-0.11 -4.06,-0.11" /><path
         id="path152"
         style="fill:#432018;fill-opacity:1;fill-rule:nonzero;stroke:none"
         d="m 2503.52,4329.89 c 3.62,20.42 -0.68,35.19 -0.77,35.5 -0.39,1.26 0.33,2.59 1.59,2.99 0.23,0.07 0.47,0.1 0.7,0.1 1.03,0 1.97,-0.67 2.29,-1.69 0.09,-0.32 4.49,-15.47 1.07,-36.45 -1.62,-0.21 -3.24,-0.36 -4.88,-0.45" /><path
         id="path154"
         style="fill:#ba6044;fill-opacity:1;fill-rule:nonzero;stroke:none"
         d="m 2685.59,4912.11 c 0,121.11 -105.31,219.3 -235.21,219.3 -129.91,0 -235.21,-98.19 -235.21,-219.3 0,-3.31 0.11,-6.59 0.27,-9.85 h -0.27 l 0.66,-5.74 c 0.43,-5.77 1.05,-11.5 1.96,-17.14 L 2235.23,4727 c 11.09,-142.53 57.36,-259.68 120.62,-318.96 12.79,-11.97 29.81,-18.38 47.33,-18.38 h 96.28 c 17.43,0 34.35,6.33 47.11,18.19 63.01,58.55 108.63,174.22 119.1,317.65 l 17.54,155.61 c 0.75,4.98 1.3,10 1.69,15.08 l 0.69,6.07 h -0.27 c 0.15,3.26 0.27,6.54 0.27,9.85" /><path
         id="path156"
         style="fill:#e6615e;fill-opacity:1;fill-rule:nonzero;stroke:none"
         d="m 2685.59,4912.11 c 0,121.11 -105.31,219.3 -235.21,219.3 -129.91,0 -235.21,-98.19 -235.21,-219.3 0,-3.31 0.11,-6.59 0.27,-9.85 h -0.27 l 0.66,-5.74 c 0.43,-5.77 1.05,-11.5 1.96,-17.14 L 2235.23,4727 c 11.09,-142.53 57.36,-259.68 120.62,-318.96 12.79,-11.97 29.81,-18.38 47.33,-18.38 h 96.28 c 17.43,0 34.35,6.33 47.11,18.19 63.01,58.55 108.63,174.22 119.1,317.65 l 17.54,155.61 c 0.75,4.98 1.3,10 1.69,15.08 l 0.69,6.07 h -0.27 c 0.15,3.26 0.27,6.54 0.27,9.85" /><path
         id="path158"
         style="fill:#7e3f35;fill-opacity:1;fill-rule:nonzero;stroke:none"
         d="m 2526.86,4486.56 v 0 -42.3 c 0,-16.21 -13.86,-29.47 -30.79,-29.47 -15.7,0 -28.73,11.4 -30.55,25.98 v 45.79 h -0.24 -8.91 -0.24 v -45.79 c -1.82,-14.58 -14.85,-25.98 -30.55,-25.98 -16.93,0 -30.79,13.26 -30.79,29.47 v 42.3 c -7.58,0 -14.65,3.82 -18.82,10.16 l -139.03,211.43 c 13.58,-134.14 58.58,-243.76 119.16,-300.33 12.72,-11.88 29.68,-18.16 47.08,-18.16 h 96.28 c 17.4,0 34.31,6.3 47.06,18.14 54.7,50.8 96.28,144.64 113.17,262.3 l -114.01,-173.38 c -4.17,-6.34 -11.24,-10.16 -18.82,-10.16" /><path
         id="path160"
         style="fill:#6b3223;fill-opacity:1;fill-rule:nonzero;stroke:none"
         d="m 2409.99,4742.21 -1.79,0.81 c -44.5,50.1 -121.31,25.38 -122.08,25.12 -1.25,-0.43 -2.61,0.27 -3.02,1.52 -0.42,1.25 0.26,2.61 1.52,3.02 0.8,0.26 80.59,25.94 127.16,-26.48 0.88,-0.99 0.78,-2.5 -0.2,-3.38 l -1.59,-0.61" /><path
         id="path162"
         style="fill:#f0f5d7;fill-opacity:1;fill-rule:nonzero;stroke:none"
         d="m 2290.53,4753.59 c 0,0 59.13,36.6 111.22,-8.45 0,0 -58.42,-39.42 -111.22,8.45" /><path
         id="path164"
         style="fill:#100f0d;fill-opacity:1;fill-rule:nonzero;stroke:none"
         d="m 2365.27,4744.59 c 0,-9.32 -7.56,-16.89 -16.89,-16.89 -9.33,0 -16.9,7.57 -16.9,16.89 0,9.33 7.57,16.9 16.9,16.9 9.33,0 16.89,-7.57 16.89,-16.9" /><path
         id="path166"
         style="fill:#f0f5d7;fill-opacity:1;fill-rule:nonzero;stroke:none"
         d="m 2334.46,4750.93 c 1.3,1.09 3.23,0.91 4.31,-0.39 1.08,-1.3 0.91,-3.23 -0.39,-4.32 -1.3,-1.08 -3.23,-0.9 -4.32,0.4 -1.08,1.3 -0.91,3.23 0.4,4.31" /><path
         id="path168"
         style="fill:#6b3223;fill-opacity:1;fill-rule:nonzero;stroke:none"
         d="m 2521.28,4742.21 -1.59,0.61 c -0.98,0.88 -1.08,2.39 -0.2,3.38 46.58,52.44 126.36,26.75 127.16,26.48 1.26,-0.41 1.94,-1.77 1.52,-3.02 -0.42,-1.25 -1.77,-1.95 -3.02,-1.52 -0.77,0.25 -77.61,24.93 -122.08,-25.12 l -1.79,-0.81" /><path
         id="path170"
         style="fill:#f0f5d7;fill-opacity:1;fill-rule:nonzero;stroke:none"
         d="m 2640.74,4753.59 c 0,0 -59.13,36.6 -111.22,-8.45 0,0 58.42,-39.42 111.22,8.45" /><path
         id="path172"
         style="fill:#100f0d;fill-opacity:1;fill-rule:nonzero;stroke:none"
         d="m 2593.91,4745.51 c 0,-9.33 -7.57,-16.89 -16.9,-16.89 -9.33,0 -16.89,7.56 -16.89,16.89 0,9.34 7.56,16.9 16.89,16.9 9.33,0 16.9,-7.56 16.9,-16.9" /><path
         id="path174"
         style="fill:#f0f5d7;fill-opacity:1;fill-rule:nonzero;stroke:none"
         d="m 2563.09,4751.85 c 1.3,1.09 3.23,0.91 4.32,-0.39 1.08,-1.3 0.91,-3.23 -0.4,-4.31 -1.3,-1.09 -3.23,-0.91 -4.31,0.39 -1.08,1.3 -0.91,3.23 0.39,4.31" /><path
         id="path176"
         style="fill:#6b3223;fill-opacity:1;fill-rule:nonzero;stroke:none"
         d="m 2506.49,4593.5 c -2.43,0 -4.87,0.47 -7.2,1.44 l -56.52,23.41 c -1.22,0.5 -1.8,1.91 -1.29,3.13 0.51,1.21 1.9,1.8 3.12,1.29 l 56.52,-23.41 c 4.91,-2.03 10.28,-1.21 14.37,2.22 4.05,3.39 5.8,8.5 4.66,13.64 -13.99,63.36 -47.03,114.58 -47.36,115.09 l -0.39,0.6 v 60.73 c 0,1.33 1.07,2.39 2.39,2.39 1.32,0 2.39,-1.06 2.39,-2.39 v -59.33 c 3.8,-6.01 34.3,-55.61 47.64,-116.06 1.53,-6.92 -0.81,-13.78 -6.26,-18.34 -3.46,-2.9 -7.73,-4.41 -12.07,-4.41" /><path
         id="path178"
         style="fill:#3259b1;fill-opacity:1;fill-rule:nonzero;stroke:none"
         d="m 2933.41,4038.4 -202.88,136.37 c -5.99,4.03 -11.69,8.3 -17.1,12.79 -65.26,-134.16 -159.49,-96.31 -264.29,-96.31 -104.79,0 -199.03,-37.85 -264.29,96.31 -5.4,-4.49 -11.1,-8.76 -17.1,-12.79 L 1964.88,4038.4 c -89.13,-59.9 -130.93,-156.88 -108.23,-251.08 l 31.09,-129.04 h 531.4 60 531.4 l 31.09,129.04 c 22.71,94.2 -19.1,191.18 -108.22,251.08" /><path
         id="path180"
         style="fill:#221e1a;fill-opacity:1;fill-rule:nonzero;stroke:none"
         d="m 2533.21,4546.91 h -143.4 l -13.67,14.5 c -0.9,0.96 -0.86,2.48 0.11,3.38 0.96,0.91 2.47,0.87 3.38,-0.1 l 12.25,-13 h 139.35 l 10.96,10.96 c 0.94,0.94 2.45,0.94 3.38,0 0.94,-0.93 0.94,-2.45 0,-3.39 l -12.36,-12.35" /><path
         id="path182"
         style="fill:#6b3223;fill-opacity:1;fill-rule:nonzero;stroke:none"
         d="m 2469.16,4517.81 c -28.67,0 -53.36,7.66 -54.91,8.14 -1.26,0.4 -1.95,1.75 -1.55,3 0.39,1.27 1.74,1.96 2.99,1.56 0.57,-0.17 56.37,-17.47 96.68,-0.08 1.2,0.52 2.62,-0.04 3.14,-1.25 0.53,-1.21 -0.04,-2.62 -1.25,-3.14 -14.32,-6.18 -30.25,-8.23 -45.1,-8.23" /><path
         id="path184"
         style="fill:#100f0d;fill-opacity:1;fill-rule:nonzero;stroke:none"
         d="m 2513.32,4528.23 c -41.64,-17.94 -98.34,0 -98.34,0 l 8.13,-18.88 c 6.88,-16 22.63,-26.37 40.05,-26.37 16.19,0 31.05,8.97 38.59,23.29 l 11.57,21.96" /><path
         id="path186"
         style="fill:#100f0d;fill-opacity:1;fill-rule:nonzero;stroke:none"
         d="m 2269.02,4816.61 h 158.71 l -33.27,32.68 c 0,0 -87.19,-4.05 -125.44,-32.68" /><path
         id="path188"
         style="fill:#100f0d;fill-opacity:1;fill-rule:nonzero;stroke:none"
         d="m 2678.76,4816.61 h -158.71 l 33.27,32.68 c 0,0 87.2,-4.05 125.44,-32.68" /><path
         id="path190"
         style="fill:#100f0d;fill-opacity:1;fill-rule:nonzero;stroke:none"
         d="m 2355.97,4561.95 h 220.45 l -5.77,3.57 c -17.5,10.83 -37.67,16.58 -58.25,16.58 h -92.78 c -22.78,0 -45.02,-7.04 -63.65,-20.15" /><path
         id="path192"
         style="fill:#e6615e;fill-opacity:1;fill-rule:nonzero;stroke:none"
         d="m 2245.57,4647.07 -17.75,144.65 -21.06,13.59 c -21.34,13.78 -49.95,4.02 -58.42,-19.93 -3.43,-9.7 -2.46,-20.41 2.66,-29.33 l 61.13,-106.71 c 7.15,-12.46 24.67,-13.65 33.44,-2.27" /><path
         id="path194"
         style="fill:#6b3223;fill-opacity:1;fill-rule:nonzero;stroke:none"
         d="m 2232.73,4660.84 c -1.17,0 -2.19,0.86 -2.37,2.05 l -4.3,29.43 -0.24,-0.13 c -3.13,-1.55 -6.66,-1.79 -9.97,-0.65 -3.3,1.14 -5.94,3.51 -7.44,6.66 -2.43,5.12 -1.19,11.33 3.03,15.12 l 9.14,8.24 -3.98,23.82 c -2.34,14.04 -9.99,26.35 -21.53,34.66 -4.07,2.93 -9.29,3.61 -13.95,1.83 -4.66,-1.77 -8.11,-5.74 -9.21,-10.61 -0.8,-3.6 -0.25,-7.34 1.55,-10.54 l 11.11,-19.75 c 0.65,-1.15 0.24,-2.61 -0.91,-3.25 -1.15,-0.66 -2.61,-0.25 -3.26,0.9 l -11.11,19.76 c -2.39,4.23 -3.11,9.18 -2.05,13.92 1.46,6.45 6.01,11.7 12.19,14.04 6.18,2.36 13.06,1.45 18.43,-2.42 12.58,-9.05 20.91,-22.46 23.46,-37.75 l 4.41,-26.41 -11.1,-10 c -2.65,-2.38 -3.43,-6.29 -1.9,-9.5 0.94,-1.99 2.61,-3.48 4.68,-4.2 2.08,-0.71 4.3,-0.57 6.27,0.41 l 6.15,3.08 5.27,-35.97 c 0.19,-1.31 -0.71,-2.52 -2.02,-2.72 l -0.35,-0.02" /><path
         id="path196"
         style="fill:#6b3223;fill-opacity:1;fill-rule:nonzero;stroke:none"
         d="m 2213.03,4709.15 -1.73,0.73 c -15.52,16.24 -12.85,40.12 -12.73,41.13 0.16,1.31 1.29,2.31 2.66,2.08 1.31,-0.15 2.25,-1.34 2.09,-2.65 -0.02,-0.23 -2.49,-22.67 11.44,-37.24 0.92,-0.96 0.88,-2.48 -0.07,-3.39 l -1.66,-0.66" /><path
         id="path198"
         style="fill:#e6615e;fill-opacity:1;fill-rule:nonzero;stroke:none"
         d="m 2655.22,4647.07 17.74,144.65 21.06,13.59 c 21.35,13.78 49.96,4.02 58.42,-19.93 3.43,-9.7 2.46,-20.41 -2.65,-29.33 l -61.14,-106.71 c -7.14,-12.46 -24.67,-13.65 -33.43,-2.27" /><path
         id="path200"
         style="fill:#6b3223;fill-opacity:1;fill-rule:nonzero;stroke:none"
         d="m 2668.06,4660.84 -0.35,0.02 c -1.31,0.2 -2.21,1.41 -2.02,2.72 l 5.26,35.97 6.16,-3.08 c 1.95,-0.98 4.17,-1.12 6.26,-0.41 2.07,0.72 3.74,2.21 4.68,4.2 1.53,3.21 0.75,7.12 -1.89,9.5 l -11.11,10 4.41,26.41 c 2.56,15.29 10.89,28.7 23.46,37.75 5.37,3.87 12.25,4.77 18.43,2.42 6.18,-2.34 10.74,-7.59 12.19,-14.04 1.07,-4.73 0.35,-9.68 -2.05,-13.92 l -11.1,-19.76 c -0.65,-1.14 -2.12,-1.55 -3.26,-0.9 -1.15,0.64 -1.56,2.1 -0.91,3.25 l 11.11,19.75 c 1.8,3.21 2.35,6.95 1.54,10.53 -1.1,4.88 -4.54,8.85 -9.21,10.62 -4.67,1.78 -9.88,1.09 -13.95,-1.83 -11.53,-8.31 -19.19,-20.62 -21.53,-34.66 l -3.98,-23.82 9.16,-8.24 c 4.21,-3.79 5.45,-10 3.01,-15.12 -1.5,-3.15 -4.14,-5.52 -7.44,-6.66 -3.31,-1.15 -6.84,-0.9 -9.96,0.65 l -0.24,0.12 -4.3,-29.42 c -0.18,-1.19 -1.2,-2.05 -2.37,-2.05" /><path
         id="path202"
         style="fill:#6b3223;fill-opacity:1;fill-rule:nonzero;stroke:none"
         d="m 2687.75,4709.15 -1.65,0.66 c -0.95,0.91 -0.99,2.43 -0.07,3.39 13.92,14.57 11.46,37.01 11.44,37.24 -0.16,1.31 0.78,2.5 2.09,2.65 1.31,0.23 2.5,-0.77 2.65,-2.08 0.12,-1.01 2.79,-24.89 -12.73,-41.13 l -1.73,-0.73" /><path
         id="path204"
         style="fill:#6b3223;fill-opacity:1;fill-rule:nonzero;stroke:none"
         d="m 2336.9,4709.15 h -24.48 c -1.33,0 -2.4,1.07 -2.4,2.39 0,1.32 1.07,2.39 2.4,2.39 h 24.48 c 16.75,0 33.59,3.8 48.71,10.98 l 23.35,11.08 c 1.18,0.56 2.62,0.06 3.19,-1.13 0.57,-1.2 0.06,-2.63 -1.13,-3.2 l -23.35,-11.08 c -15.77,-7.48 -33.32,-11.43 -50.77,-11.43" /><path
         id="path206"
         style="fill:#6b3223;fill-opacity:1;fill-rule:nonzero;stroke:none"
         d="m 2617.02,4709.15 h -24.48 c -17.45,0 -35.01,3.95 -50.77,11.43 l -23.34,11.08 c -1.19,0.57 -1.71,2 -1.14,3.2 0.57,1.19 2.01,1.69 3.19,1.13 l 23.34,-11.08 c 15.13,-7.18 31.98,-10.98 48.72,-10.98 h 24.48 c 1.32,0 2.39,-1.07 2.39,-2.39 0,-1.32 -1.07,-2.39 -2.39,-2.39" /><path
         id="path208"
         style="fill:#100f0d;fill-opacity:1;fill-rule:nonzero;stroke:none"
         d="m 2227.82,4791.72 v 110.01 c 0,29.5 12.2,57.69 33.7,77.89 19.82,18.6 45.98,28.96 73.15,28.96 h 267.21 c 24.4,0 47.32,-11.72 61.62,-31.5 v -0.01 c 9.89,-13.69 14.94,-30.3 14.34,-47.19 l -4.88,-138.16 43.44,146.68 -48.35,105.28 -99.81,100.49 -158.25,11.17 -97.57,-43.07 -95.14,-74.98 -38.45,-103.68 48.99,-141.89" /><path
         id="path210"
         style="fill:#6b3223;fill-opacity:1;fill-rule:nonzero;stroke:none"
         d="m 2454.71,4821.6 -0.92,0.18 c -1.21,0.5 -1.8,1.9 -1.3,3.12 13.57,33.01 -3.86,57.26 -4.04,57.5 -0.78,1.06 -0.55,2.56 0.51,3.34 1.06,0.79 2.56,0.56 3.34,-0.49 0.8,-1.07 19.24,-26.58 4.62,-62.17 -0.38,-0.92 -1.28,-1.48 -2.21,-1.48" /><path
         id="path212"
         style="fill:#100f0d;fill-opacity:1;fill-rule:nonzero;stroke:none"
         d="m 2380.03,5017.32 c 0,-28.05 -22.73,-50.79 -50.78,-50.79 -28.05,0 -50.79,22.74 -50.79,50.79 0,28.05 22.74,50.79 50.79,50.79 28.05,0 50.78,-22.74 50.78,-50.79" /><path
         id="path214"
         style="fill:#100f0d;fill-opacity:1;fill-rule:nonzero;stroke:none"
         d="m 2287.73,4973.53 c 0,-28.05 -22.74,-50.79 -50.79,-50.79 -28.05,0 -50.79,22.74 -50.79,50.79 0,28.04 22.74,50.78 50.79,50.78 28.05,0 50.79,-22.74 50.79,-50.78" /><path
         id="path216"
         style="fill:#100f0d;fill-opacity:1;fill-rule:nonzero;stroke:none"
         d="m 2251.73,4883.82 c 0,-28.05 -22.74,-50.79 -50.79,-50.79 -28.04,0 -50.78,22.74 -50.78,50.79 0,28.05 22.74,50.79 50.78,50.79 28.05,0 50.79,-22.74 50.79,-50.79" /><path
         id="path218"
         style="fill:#100f0d;fill-opacity:1;fill-rule:nonzero;stroke:none"
         d="m 2755.63,4966.53 c 0,-28.05 -22.74,-50.79 -50.79,-50.79 -28.05,0 -50.79,22.74 -50.79,50.79 0,28.05 22.74,50.79 50.79,50.79 28.05,0 50.79,-22.74 50.79,-50.79" /><path
         id="path220"
         style="fill:#100f0d;fill-opacity:1;fill-rule:nonzero;stroke:none"
         d="m 2755.63,4883.82 c 0,-28.05 -22.74,-50.79 -50.79,-50.79 -28.05,0 -50.79,22.74 -50.79,50.79 0,28.05 22.74,50.79 50.79,50.79 28.05,0 50.79,-22.74 50.79,-50.79" /><path
         id="path222"
         style="fill:#100f0d;fill-opacity:1;fill-rule:nonzero;stroke:none"
         d="m 2478.53,5017.32 c 0,-28.05 -22.74,-50.79 -50.8,-50.79 -28.05,0 -50.79,22.74 -50.79,50.79 0,28.05 22.74,50.79 50.79,50.79 28.06,0 50.8,-22.74 50.8,-50.79" /><path
         id="path224"
         style="fill:#100f0d;fill-opacity:1;fill-rule:nonzero;stroke:none"
         d="m 2577.01,5017.32 c 0,-28.05 -22.74,-50.79 -50.79,-50.79 -28.05,0 -50.79,22.74 -50.79,50.79 0,28.05 22.74,50.79 50.79,50.79 28.05,0 50.79,-22.74 50.79,-50.79" /><path
         id="path226"
         style="fill:#100f0d;fill-opacity:1;fill-rule:nonzero;stroke:none"
         d="m 2675.5,5017.32 c 0,-28.05 -22.74,-50.79 -50.79,-50.79 -28.05,0 -50.79,22.74 -50.79,50.79 0,28.05 22.74,50.79 50.79,50.79 28.05,0 50.79,-22.74 50.79,-50.79" /><path
         id="path228"
         style="fill:#100f0d;fill-opacity:1;fill-rule:nonzero;stroke:none"
         d="m 1813.77,590.32 h -62.09 l 445.09,1635.82 h 62.09 L 1813.77,590.32" /><path
         id="path230"
         style="fill:#100f0d;fill-opacity:1;fill-rule:nonzero;stroke:none"
         d="m 3061.71,590.32 h 62.09 l -445.09,1635.82 h -62.09 L 3061.71,590.32" /><path
         id="path232"
         style="fill:#fcd13e;fill-opacity:1;fill-rule:nonzero;stroke:none"
         d="M 3106.52,2923.89 H 1869.68 c -66,0 -120,54.01 -120,120 v 817.25 c 0,66 54,120 120,120 h 1236.84 c 66,0 120,-54 120,-120 v -817.25 c 0,-65.99 -54,-120 -120,-120" /><path
         id="path234"
         style="fill:#ffffff;fill-opacity:1;fill-rule:nonzero;stroke:none"
         d="m 2618.5,3567.35 c 0,-72.02 -58.38,-130.4 -130.4,-130.4 -72.01,0 -130.39,58.38 -130.39,130.4 0,72.01 58.38,130.39 130.39,130.39 72.02,0 130.4,-58.38 130.4,-130.39" /><path
         id="path236"
         style="fill:#9d4530;fill-opacity:1;fill-rule:nonzero;stroke:none"
         d="M 4221.99,2826.98 H 754.219 v 96.91 H 4221.99 v -96.91" /><path
         id="path238"
         style="fill:#762f23;fill-opacity:1;fill-rule:nonzero;stroke:none"
         d="M 4035.21,2686.01 H 940.996 v 140.97 H 4035.21 v -140.97" /><path
         id="path240"
         style="fill:#762f23;fill-opacity:1;fill-rule:nonzero;stroke:none"
         d="M 1375.82,590.32 H 1256 v 2095.69 h 119.82 V 590.32" /><path
         id="path242"
         style="fill:#762f23;fill-opacity:1;fill-rule:nonzero;stroke:none"
         d="m 3758.15,590.32 h -119.82 v 2095.69 h 119.82 V 590.32" /><path
         id="path244"
         style="fill:#e6615e;fill-opacity:1;fill-rule:nonzero;stroke:none"
         d="m 1908.24,653.762 h 210.03 L 2056.1,1842.82 1693.62,1803.31 1908.24,653.762" /><path
         id="path246"
         style="fill:#762f23;fill-opacity:1;fill-rule:nonzero;stroke:none"
         d="m 2026.15,2466.77 c 0,-130.42 -105.73,-236.14 -236.15,-236.14 -130.42,0 -236.15,105.72 -236.15,236.14 0,130.42 105.73,236.16 236.15,236.16 130.42,0 236.15,-105.74 236.15,-236.16" /><path
         id="path248"
         style="fill:#762f23;fill-opacity:1;fill-rule:nonzero;stroke:none"
         d="M 1835.76,935.68 H 2106.2 L 2026.15,2466.77 1559.41,2415.9 1835.76,935.68" /><path
         id="path250"
         style="fill:#291413;fill-opacity:1;fill-rule:nonzero;stroke:none"
         d="m 2142.36,590.32 0.06,2.34 c 0,97.332 -78.89,176.211 -176.21,176.211 -97.32,0 -176.21,-78.879 -176.21,-176.211 l 0.06,-2.34 h 352.3" /><path
         id="path252"
         style="fill:#e6615e;fill-opacity:1;fill-rule:nonzero;stroke:none"
         d="m 2972.15,653.762 h -210.04 l 62.18,1189.058 362.48,-39.51 -214.62,-1149.548" /><path
         id="path254"
         style="fill:#762f23;fill-opacity:1;fill-rule:nonzero;stroke:none"
         d="m 2854.24,2466.77 c 0,-130.42 105.72,-236.14 236.14,-236.14 130.42,0 236.15,105.72 236.15,236.14 0,130.42 -105.73,236.16 -236.15,236.16 -130.42,0 -236.14,-105.74 -236.14,-236.16" /><path
         id="path256"
         style="fill:#762f23;fill-opacity:1;fill-rule:nonzero;stroke:none"
         d="m 3044.63,935.68 h -270.45 l 80.06,1531.09 466.74,-50.87 -276.35,-1480.22" /><path
         id="path258"
         style="fill:#291413;fill-opacity:1;fill-rule:nonzero;stroke:none"
         d="m 2738.03,590.32 -0.06,2.34 c 0,97.332 78.89,176.211 176.21,176.211 97.31,0 176.2,-78.879 176.2,-176.211 l -0.06,-2.34 h -352.29" /><path
         id="path260"
         style="fill:#ffffff;fill-opacity:1;fill-rule:nonzero;stroke:none"
         d="m 1601.36,4038.39 -192.25,281.37 c 20.33,18.41 33.18,44.92 33.18,74.5 v 222.69 c 0,55.54 -45.02,100.57 -100.57,100.57 H 889.004 c -55.535,0 -100.563,-45.03 -100.563,-100.57 v -222.69 c 0,-55.54 45.028,-100.57 100.563,-100.57 h 300.656 l 411.7,-255.3" /><path
         id="path262"
         style="fill:#ffffff;fill-opacity:1;fill-rule:nonzero;stroke:none"
         d="m 3231.87,4595.05 192.25,281.37 c -20.33,18.4 -33.18,44.91 -33.18,74.49 v 222.7 c 0,55.54 45.03,100.56 100.56,100.56 h 452.73 c 55.54,0 100.56,-45.02 100.56,-100.56 v -222.7 c 0,-55.53 -45.02,-100.56 -100.56,-100.56 h -300.66 l -411.7,-255.3" /><path
         id="path264"
         style="fill:#ffffff;fill-opacity:1;fill-rule:nonzero;stroke:none"
         d="m 3427.96,3468.08 164.98,241.46 c -17.44,15.79 -28.47,38.54 -28.47,63.92 v 191.1 c 0,47.66 38.64,86.3 86.29,86.3 h 388.49 c 47.66,0 86.3,-38.64 86.3,-86.3 v -191.1 c 0,-47.66 -38.64,-86.3 -86.3,-86.3 h -258 l -353.29,-219.08" /><path
         id="path266"
         style="fill:#e84570;fill-opacity:1;fill-rule:nonzero;stroke:none"
         d="m 3578.68,5170.01 c -21.09,-24.75 -24.03,-52.13 -17.14,-86.55 5.9,-29.43 62.84,-87.77 129.81,-141.23 l -6.37,196.13 c -15.59,60.71 -83.61,58.32 -106.3,31.65" /><path
         id="path268"
         style="fill:#e84570;fill-opacity:1;fill-rule:nonzero;stroke:none"
         d="m 3789.05,5176.81 c -24.41,25.16 -92.42,23.14 -104.07,-38.45 l 6.37,-196.13 c 63.35,57.68 116.42,119.6 120.42,149.34 4.63,34.77 -0.09,61.91 -22.72,85.24" /><path
         id="path270"
         style="fill:#4984cd;fill-opacity:1;fill-rule:nonzero;stroke:none"
         d="m 3990.47,3876.23 h -113.12 c -12,0 -21.81,9.82 -21.81,21.82 v 1.87 c 0,12 9.81,21.82 21.81,21.82 h 113.12 c 11.99,0 21.82,-9.82 21.82,-21.82 v -1.88 c 0,-11.99 -9.83,-21.81 -21.82,-21.81" /><path
         id="path272"
         style="fill:#4984cd;fill-opacity:1;fill-rule:nonzero;stroke:none"
         d="m 3998.74,3830.72 h -113.11 c -12.01,0 -21.82,9.82 -21.82,21.82 v 1.88 c 0,11.99 9.81,21.81 21.82,21.81 h 113.11 c 12,0 21.82,-9.82 21.82,-21.81 v -1.88 c 0,-12 -9.82,-21.82 -21.82,-21.82" /><path
         id="path274"
         style="fill:#4984cd;fill-opacity:1;fill-rule:nonzero;stroke:none"
         d="m 3983.57,3787.98 h -113.11 c -12,0 -21.82,9.81 -21.82,21.81 v 1.88 c 0,11.99 9.82,21.81 21.82,21.81 h 113.11 c 12,0 21.82,-9.82 21.82,-21.81 v -1.88 c 0,-12 -9.82,-21.81 -21.82,-21.81" /><path
         id="path276"
         style="fill:#4984cd;fill-opacity:1;fill-rule:nonzero;stroke:none"
         d="m 3958.75,3746.6 h -81.4 c -12,0 -21.81,9.82 -21.81,21.82 v 1.87 c 0,12 9.81,21.82 21.81,21.82 h 81.4 c 12,0 21.82,-9.82 21.82,-21.82 v -1.87 c 0,-12 -9.82,-21.82 -21.82,-21.82" /><path
         id="path278"
         style="fill:#4984cd;fill-opacity:1;fill-rule:nonzero;stroke:none"
         d="m 3854.15,3855.54 h -1.38 c -12.12,0 -22.06,9.94 -22.06,22.07 0,0 3.45,70.5 3.45,95.84 0,5.69 -0.15,26.71 -0.69,34.48 -1.57,22.71 6.89,17.23 19.3,15.86 h 1.38 c 15.18,-4.14 21.38,-20 20.69,-30.34 l 1.38,-115.84 c 0,-12.13 -9.93,-22.07 -22.07,-22.07" /><path
         id="path280"
         style="fill:#4984cd;fill-opacity:1;fill-rule:nonzero;stroke:none"
         d="m 3896.86,3746.6 h -71.62 c -17.21,0 -31.3,14.09 -31.3,31.31 v 111.14 c 0,17.22 14.09,31.31 31.3,31.31 h 71.62 c 17.21,0 31.3,-14.09 31.3,-31.31 v -111.14 c 0,-17.22 -14.09,-31.31 -31.3,-31.31" /><path
         id="path282"
         style="fill:#4984cd;fill-opacity:1;fill-rule:nonzero;stroke:none"
         d="m 3804.97,3918.29 c 0,0 16.78,13.79 33.33,52.41 l -4.14,-54.48 -29.19,2.07" /><path
         id="path284"
         style="fill:#ffffff;fill-opacity:1;fill-rule:nonzero;stroke:none"
         d="m 3763.98,3743.84 h -2.6 c -16.73,0 -30.41,13.69 -30.41,30.41 v 108.8 c 0,16.73 13.68,30.41 30.41,30.41 h 2.6 c 16.73,0 30.42,-13.68 30.42,-30.41 v -108.8 c 0,-16.72 -13.69,-30.41 -30.42,-30.41" /><path
         id="path286"
         style="fill:#4984cd;fill-opacity:1;fill-rule:nonzero;stroke:none"
         d="m 3753.03,3909.94 c -10.23,0 -18.55,-8.32 -18.55,-18.54 v -125.49 c 0,-10.22 8.32,-18.54 18.55,-18.54 h 19.3 c 10.23,0 18.54,8.32 18.54,18.54 v 125.49 c 0,10.22 -8.31,18.54 -18.54,18.54 z m 19.3,-169.62 h -19.3 c -14.11,0 -25.59,11.48 -25.59,25.59 v 125.49 c 0,14.11 11.48,25.59 25.59,25.59 h 19.3 c 14.12,0 25.59,-11.48 25.59,-25.59 v -125.49 c 0,-14.11 -11.47,-25.59 -25.59,-25.59" /><path
         id="path288"
         style="fill:#4984cd;fill-opacity:1;fill-rule:nonzero;stroke:none"
         d="m 1084.09,4637.33 0.38,25.79 -49.5,-27.61 -49.505,-27.6 48.665,-29.07 48.65,-29.07 0.36,23.64 c 44.77,-4.08 79.89,-41.55 79.89,-87.39 0,-47.85 -38.25,-86.7 -85.84,-87.83 v -0.05 c 65.2,1.12 117.71,54.29 117.71,119.76 0,63.14 -48.85,114.82 -110.81,119.43" /></g></g></svg>